<?xml version="1.0" encoding="UTF-8" standalone="no"?>
<!-- Created with Inkscape (http://www.inkscape.org/) -->

<svg
   version="1.1"
   id="svg2"
   width="233.11066"
   height="359.72531"
   viewBox="0 0 233.11066 359.72531"
   sodipodi:docname="logo-tp-ipp.svg"
   inkscape:version="1.2.2 (b0a8486541, 2022-12-01)"
   xmlns:inkscape="http://www.inkscape.org/namespaces/inkscape"
   xmlns:sodipodi="http://sodipodi.sourceforge.net/DTD/sodipodi-0.dtd"
   xmlns="http://www.w3.org/2000/svg"
   xmlns:svg="http://www.w3.org/2000/svg">
  <defs
     id="defs6" />
  <sodipodi:namedview
     id="namedview4"
     pagecolor="#ffffff"
     bordercolor="#666666"
     borderopacity="1.0"
     inkscape:showpageshadow="2"
     inkscape:pageopacity="0.0"
     inkscape:pagecheckerboard="0"
     inkscape:deskcolor="#d1d1d1"
     showgrid="false"
     inkscape:zoom="0.65605614"
     inkscape:cx="115.84374"
     inkscape:cy="179.86266"
     inkscape:window-width="1920"
     inkscape:window-height="1131"
     inkscape:window-x="1920"
     inkscape:window-y="32"
     inkscape:window-maximized="1"
     inkscape:current-layer="g10">
    <inkscape:page
       x="0"
       y="0"
       id="page8"
       width="233.11066"
       height="359.72531" />
  </sodipodi:namedview>
  <g
     id="g10"
     inkscape:groupmode="layer"
     inkscape:label="Page 1"
     transform="matrix(1.3333333,0,0,-1.3333333,0,359.7253)">
    <path
       d="M 0,269.794 H 174.832 V 0.001 H 0 Z"
       style="fill:#ffffff;fill-opacity:1;fill-rule:nonzero;stroke:none"
       id="path14" />
    <path
       d="m 28.484,29.978 c -6.656,4.578 -10.242,7.023 -13.609,9.523 -1.617,-2.676 -2.551,-5.812 -2.551,-9.168 0,-6.086 3.071,-11.453 7.742,-14.644 1.946,3.839 4.563,8.113 8.418,14.289"
       style="fill:#231f20;fill-opacity:1;fill-rule:nonzero;stroke:none"
       id="path16" />
    <path
       d="m 45.914,26.442 c -2.738,-2.91 -7.129,-3.336 -10.273,-1.355 -0.606,0.383 -4.934,3.367 -4.934,3.367 -4.785,-6.754 -7.242,-10.148 -9.883,-13.258 2.688,-1.64 5.844,-2.586 9.223,-2.586 9.504,0 17.258,7.477 17.703,16.871 -0.387,-1.128 -1.016,-2.179 -1.836,-3.039"
       style="fill:#231f20;fill-opacity:1;fill-rule:nonzero;stroke:none"
       id="path18" />
    <path
       d="m 42.641,36.427 c -0.59,0.387 -4.391,2.914 -4.391,2.914 -3.109,-4.59 -3.602,-5.262 -5.98,-8.668 0,0 4.136,-2.68 4.734,-3.047 2.141,-1.316 4.98,-0.926 6.644,0.93 0.641,0.715 1.098,1.597 1.274,2.531 0.332,1.723 -0.219,3.98 -2.281,5.34"
       style="fill:#231f20;fill-opacity:1;fill-rule:nonzero;stroke:none"
       id="path20" />
    <path
       d="m 29.879,32.212 c 2.25,3.582 4.281,6.773 7.473,11.598 0,0 6.699,-4.418 7.296,-4.844 0.704,-0.5 1.215,-1.004 1.622,-1.492 -2.747,6.234 -8.973,10.586 -16.223,10.586 -5.774,0 -10.902,-2.766 -14.141,-7.043 3.571,-2.114 7.832,-4.856 13.973,-8.805"
       style="fill:#231f20;fill-opacity:1;fill-rule:nonzero;stroke:none"
       id="path22" />
    <path
       d="m 13.289,43.099 c 0.004,1.234 -0.992,2.238 -2.227,2.242 -1.234,0.004 -2.238,-0.992 -2.242,-2.227 -0.004,-1.234 0.992,-2.242 2.227,-2.246 1.234,-0.004 2.238,0.996 2.242,2.231"
       style="fill:#231f20;fill-opacity:1;fill-rule:nonzero;stroke:none"
       id="path24" />
    <path
       d="m 16.863,48.946 c 0.356,0.254 0.438,0.61 0.239,0.891 l -0.008,0.004 c -0.223,0.316 -0.567,0.316 -0.914,0.066 l -0.547,-0.39 0.687,-0.961 z m -2.004,0.664 1.051,0.754 c 0.621,0.442 1.27,0.367 1.652,-0.168 l 0.008,-0.007 c 0.426,-0.602 0.168,-1.258 -0.418,-1.676 l -0.531,-0.379 0.613,-0.86 -0.468,-0.335 z"
       style="fill:#231f20;fill-opacity:1;fill-rule:nonzero;stroke:none"
       id="path26" />
    <path
       d="M 21.812,51.692 21.809,51.7 c -0.258,0.582 -0.899,0.879 -1.493,0.617 -0.597,-0.265 -0.804,-0.925 -0.546,-1.507 l 0.003,-0.008 c 0.258,-0.586 0.899,-0.883 1.497,-0.617 0.593,0.261 0.8,0.921 0.542,1.507 m -2.589,-1.144 -0.004,0.008 c -0.371,0.847 -0.031,1.843 0.89,2.25 0.922,0.406 1.875,-0.008 2.25,-0.852 l 0.004,-0.008 c 0.371,-0.847 0.032,-1.843 -0.89,-2.25 -0.922,-0.41 -1.875,0.008 -2.25,0.852"
       style="fill:#231f20;fill-opacity:1;fill-rule:nonzero;stroke:none"
       id="path28" />
    <path
       d="m 23.758,54.044 0.562,0.125 0.59,-2.695 1.688,0.371 0.109,-0.516 -2.246,-0.492 z"
       style="fill:#231f20;fill-opacity:1;fill-rule:nonzero;stroke:none"
       id="path30" />
    <path
       d="m 28.398,52.79 -1.421,1.91 0.679,0.039 1.004,-1.398 0.844,1.508 0.66,0.039 -1.187,-2.051 0.078,-1.305 -0.582,-0.035 z"
       style="fill:#231f20;fill-opacity:1;fill-rule:nonzero;stroke:none"
       id="path32" />
    <path
       d="m 32.516,54.173 -1.036,0.121 0.063,0.531 2.645,-0.308 -0.059,-0.532 -1.035,0.121 -0.317,-2.73 -0.578,0.066 z"
       style="fill:#231f20;fill-opacity:1;fill-rule:nonzero;stroke:none"
       id="path34" />
    <path
       d="m 36.148,54.091 2.325,-0.715 -0.149,-0.492 -1.777,0.543 -0.25,-0.817 1.574,-0.48 -0.152,-0.496 -1.574,0.484 -0.258,-0.844 1.797,-0.55 -0.149,-0.493 -2.351,0.719 z"
       style="fill:#231f20;fill-opacity:1;fill-rule:nonzero;stroke:none"
       id="path36" />
    <path
       d="m 39.613,51.138 0.004,0.008 c 0.442,0.824 1.418,1.164 2.293,0.691 0.535,-0.285 0.758,-0.645 0.891,-1.059 L 42.27,50.579 c -0.114,0.34 -0.282,0.617 -0.614,0.797 -0.554,0.297 -1.199,0.059 -1.504,-0.508 L 40.148,50.86 c -0.304,-0.566 -0.152,-1.242 0.399,-1.543 0.355,-0.191 0.66,-0.168 1.035,-0.07 l 0.145,-0.508 c -0.469,-0.148 -0.907,-0.172 -1.446,0.121 -0.843,0.454 -1.117,1.45 -0.668,2.278"
       style="fill:#231f20;fill-opacity:1;fill-rule:nonzero;stroke:none"
       id="path38" />
    <path
       d="m 44.727,50.001 0.441,-0.371 -0.875,-1.047 1.199,-1.008 0.879,1.047 0.441,-0.371 -2.109,-2.516 -0.441,0.371 0.886,1.059 -1.199,1.008 -0.89,-1.063 -0.442,0.371 z"
       style="fill:#231f20;fill-opacity:1;fill-rule:nonzero;stroke:none"
       id="path40" />
    <path
       d="m 48.559,46.442 0.328,-0.425 -0.719,-2.778 1.797,1.391 0.347,-0.449 -2.597,-2.012 -0.297,0.383 0.742,2.859 -1.848,-1.43 -0.347,0.45 z"
       style="fill:#231f20;fill-opacity:1;fill-rule:nonzero;stroke:none"
       id="path42" />
    <path
       d="M 51.445,42.278 51.723,41.771 48.84,40.2 48.562,40.708 Z"
       style="fill:#231f20;fill-opacity:1;fill-rule:nonzero;stroke:none"
       id="path44" />
    <path
       d="m 50.91,36.884 0.27,0.691 0.519,-0.215 -0.304,-0.703 c 0.203,-0.051 0.417,-0.035 0.636,0.039 l 0.008,0.004 c 0.606,0.207 0.957,0.817 0.742,1.434 -0.211,0.617 -0.851,0.879 -1.453,0.672 L 51.32,38.802 c -0.605,-0.207 -0.957,-0.821 -0.742,-1.434 0.067,-0.207 0.188,-0.367 0.332,-0.484 M 50.688,36.36 c -0.274,0.196 -0.493,0.481 -0.618,0.844 -0.324,0.953 0.168,1.867 1.043,2.168 l 0.008,0.004 c 0.875,0.297 1.84,-0.125 2.168,-1.078 0.324,-0.953 -0.168,-1.867 -1.043,-2.168 l -0.008,-0.004 c -0.351,-0.121 -0.722,-0.125 -1.062,-0.012 l -0.18,-0.461 -0.512,0.219 z"
       style="fill:#231f20;fill-opacity:1;fill-rule:nonzero;stroke:none"
       id="path46" />
    <path
       d="m 52.352,34.36 1.875,0.219 0.07,-0.57 -1.856,-0.219 c -0.605,-0.07 -0.894,-0.422 -0.836,-0.934 0.063,-0.507 0.407,-0.785 1.008,-0.714 l 1.875,0.222 0.067,-0.574 -1.848,-0.219 c -0.973,-0.113 -1.527,0.379 -1.629,1.231 -0.098,0.847 0.328,1.445 1.274,1.558"
       style="fill:#231f20;fill-opacity:1;fill-rule:nonzero;stroke:none"
       id="path48" />
    <path
       d="m 54.574,29.571 -0.183,-2.429 -0.516,0.039 0.141,1.851 -0.852,0.067 -0.125,-1.641 -0.516,0.039 0.129,1.641 -0.882,0.07 -0.145,-1.879 -0.512,0.043 0.188,2.449 z"
       style="fill:#231f20;fill-opacity:1;fill-rule:nonzero;stroke:none"
       id="path50" />
    <path
       d="m 16.082,10.181 -0.469,0.332 1.899,2.679 0.472,-0.336 z"
       style="fill:#231f20;fill-opacity:1;fill-rule:nonzero;stroke:none"
       id="path52" />
    <path
       d="m 13.664,12.04 -0.379,0.379 0.371,2.844 -1.609,-1.598 -0.399,0.402 2.329,2.313 0.339,-0.34 -0.378,-2.934 1.656,1.649 0.398,-0.402 z"
       style="fill:#231f20;fill-opacity:1;fill-rule:nonzero;stroke:none"
       id="path54" />
    <path
       d="m 12.648,17.278 -0.535,0.063 c 0.055,0.414 0.012,0.762 -0.215,1.101 -0.195,0.297 -0.457,0.395 -0.664,0.258 L 11.227,18.696 C 11.031,18.567 11,18.388 11.215,17.802 11.461,17.126 11.504,16.681 11,16.349 L 10.992,16.345 C 10.52,16.032 9.938,16.212 9.578,16.759 9.316,17.157 9.227,17.552 9.27,17.978 l 0.535,-0.02 c -0.024,-0.367 0.043,-0.676 0.207,-0.93 0.187,-0.281 0.437,-0.351 0.617,-0.23 l 0.008,0.004 c 0.211,0.14 0.226,0.328 0.004,0.933 -0.243,0.672 -0.231,1.114 0.222,1.411 l 0.008,0.007 c 0.512,0.336 1.086,0.133 1.465,-0.441 0.273,-0.418 0.391,-0.91 0.312,-1.434"
       style="fill:#231f20;fill-opacity:1;fill-rule:nonzero;stroke:none"
       id="path56" />
    <path
       d="m 8.145,20.575 0.41,-0.957 -0.489,-0.211 -1.054,2.449 0.492,0.211 0.41,-0.957 2.527,1.086 0.227,-0.535 z"
       style="fill:#231f20;fill-opacity:1;fill-rule:nonzero;stroke:none"
       id="path58" />
    <path
       d="M 6.473,23.63 6.32,24.189 9.488,25.048 9.641,24.489 Z"
       style="fill:#231f20;fill-opacity:1;fill-rule:nonzero;stroke:none"
       id="path60" />
    <path
       d="M 6.293,27.091 6.422,26.056 5.891,25.989 5.562,28.634 6.09,28.7 l 0.129,-1.031 2.73,0.34 0.071,-0.578 z"
       style="fill:#231f20;fill-opacity:1;fill-rule:nonzero;stroke:none"
       id="path62" />
    <path
       d="m 7.383,30.403 -1.887,0.121 0.039,0.579 1.863,-0.122 c 0.61,-0.039 0.957,0.254 0.989,0.77 0.035,0.508 -0.254,0.844 -0.86,0.883 L 5.641,32.755 5.68,33.329 7.539,33.208 C 8.516,33.146 8.973,32.564 8.918,31.704 8.859,30.853 8.336,30.341 7.383,30.403"
       style="fill:#231f20;fill-opacity:1;fill-rule:nonzero;stroke:none"
       id="path64" />
    <path
       d="M 6.766,36.075 6.504,35.067 5.988,35.204 6.656,37.782 7.172,37.646 6.91,36.638 9.574,35.946 9.426,35.384 Z"
       style="fill:#231f20;fill-opacity:1;fill-rule:nonzero;stroke:none"
       id="path66" />
    <path
       d="M 23.355,7.743 C 23.863,7.595 24.25,7.712 24.383,8.189 L 24.387,8.2 C 24.523,8.677 24.254,8.978 23.75,9.122 L 23.566,9.173 23.172,7.794 Z M 22.734,10.454 24,10.091 C 25.316,9.72 25.789,8.884 25.508,7.907 V 7.896 C 25.227,6.919 24.359,6.415 23.023,6.794 l -1.23,0.352 z"
       style="fill:#231f20;fill-opacity:1;fill-rule:nonzero;stroke:none"
       id="path68" />
    <path
       d="M 27.602,9.302 30.531,9.157 30.484,8.212 28.684,8.302 28.668,7.954 30.348,7.872 30.305,7.04 28.625,7.122 28.609,6.751 30.434,6.661 30.387,5.72 27.434,5.86 Z"
       style="fill:#231f20;fill-opacity:1;fill-rule:nonzero;stroke:none"
       id="path70" />
    <path
       d="m 36.766,8.505 c 0.281,0.086 0.429,0.269 0.359,0.508 l -0.004,0.008 c -0.074,0.238 -0.285,0.308 -0.578,0.218 l -0.301,-0.09 0.227,-0.734 z m -1.891,1.187 1.48,0.45 c 0.875,0.269 1.59,0.062 1.829,-0.719 L 38.188,9.415 C 38.43,8.618 37.953,8.013 37.066,7.739 L 36.707,7.63 36.98,6.739 35.883,6.399 Z"
       style="fill:#231f20;fill-opacity:1;fill-rule:nonzero;stroke:none"
       id="path72" />
    <path
       d="m 41.844,10.216 -0.688,0.57 0.141,-0.883 z m -1.84,1.469 0.992,0.562 2.973,-2.297 -1.086,-0.617 -0.387,0.313 -1.047,-0.594 0.074,-0.488 -1.07,-0.61 z"
       style="fill:#231f20;fill-opacity:1;fill-rule:nonzero;stroke:none"
       id="path74" />
    <path
       d="m 45.676,13.735 c 0.199,0.188 0.238,0.391 0.094,0.547 l -0.008,0.008 c -0.149,0.16 -0.352,0.121 -0.543,-0.059 l -0.367,-0.343 0.46,-0.492 z m -2.324,0.075 1.23,1.144 c 0.445,0.418 0.832,0.57 1.176,0.559 0.293,-0.008 0.543,-0.121 0.785,-0.379 l 0.008,-0.008 c 0.34,-0.367 0.39,-0.801 0.222,-1.234 l 1.383,-0.309 -0.961,-0.894 -1.144,0.277 -0.008,-0.008 -0.172,-0.16 0.672,-0.719 -0.844,-0.785 z"
       style="fill:#231f20;fill-opacity:1;fill-rule:nonzero;stroke:none"
       id="path76" />
    <path
       d="m 46.801,17.388 0.679,0.929 2.774,-2.035 -0.68,-0.929 z"
       style="fill:#231f20;fill-opacity:1;fill-rule:nonzero;stroke:none"
       id="path78" />
    <path
       d="m 50.973,18.271 -0.391,0.875 c 0.422,0.21 0.715,0.543 0.891,0.906 0.089,0.183 0.082,0.289 -0.004,0.328 l -0.008,0.004 c -0.09,0.043 -0.184,-0.031 -0.414,-0.328 -0.477,-0.625 -0.973,-1.141 -1.629,-0.821 l -0.008,0.004 c -0.586,0.285 -0.816,0.969 -0.402,1.821 0.289,0.597 0.644,0.968 1.101,1.191 l 0.453,-0.844 C 50.211,21.216 49.949,20.915 49.809,20.626 49.73,20.47 49.75,20.376 49.824,20.337 l 0.012,-0.004 c 0.082,-0.039 0.176,0.02 0.398,0.316 0.532,0.719 1.016,1.137 1.641,0.836 l 0.008,-0.007 c 0.652,-0.313 0.789,-1.043 0.383,-1.875 -0.305,-0.625 -0.758,-1.106 -1.293,-1.332"
       style="fill:#231f20;fill-opacity:1;fill-rule:nonzero;stroke:none"
       id="path80" />
    <path
       d="m 64.41,37.923 h 3.332 V 22.775 H 64.41 Z"
       style="fill:#231f20;fill-opacity:1;fill-rule:nonzero;stroke:none"
       id="path82" />
    <path
       d="m 80.148,30.282 h -2.64 v 4.633 h 2.578 c 1.664,0 2.703,-0.82 2.703,-2.316 0,-1.297 -0.973,-2.317 -2.641,-2.317 m 0.219,7.641 H 74.176 V 22.774 h 3.332 v 4.543 h 2.535 c 3.395,0 6.125,1.84 6.125,5.348 0,3.094 -2.188,5.258 -5.801,5.258"
       style="fill:#231f20;fill-opacity:1;fill-rule:nonzero;stroke:none"
       id="path84" />
    <path
       d="m 102.988,30.282 h -2.64 v 4.633 h 2.578 c 1.668,0 2.703,-0.82 2.703,-2.316 0,-1.297 -0.973,-2.317 -2.641,-2.317 m 0.219,7.641 H 97.016 V 22.774 h 3.332 v 4.543 h 2.535 c 3.394,0 6.125,1.84 6.125,5.348 0,3.094 -2.188,5.258 -5.801,5.258"
       style="fill:#231f20;fill-opacity:1;fill-rule:nonzero;stroke:none"
       id="path86" />
    <path
       d="m 120.828,29.114 -2.016,4.914 -2.011,-4.914 z m -3.508,8.918 h 3.075 l 6.492,-15.258 h -3.485 l -1.386,3.399 h -6.407 l -1.386,-3.399 h -3.399 z"
       style="fill:#231f20;fill-opacity:1;fill-rule:nonzero;stroke:none"
       id="path88" />
    <path
       d="m 137.773,30.564 c 1.625,0 2.555,0.867 2.555,2.144 v 0.043 c 0,1.43 -0.996,2.164 -2.617,2.164 h -3.313 v -4.351 z m -6.707,7.359 h 6.926 c 1.926,0 3.418,-0.539 4.414,-1.535 0.844,-0.844 1.301,-2.035 1.301,-3.465 V 32.88 c 0,-2.445 -1.324,-3.981 -3.246,-4.695 l 3.699,-5.411 h -3.898 l -3.246,4.848 h -2.618 v -4.848 h -3.332 z"
       style="fill:#231f20;fill-opacity:1;fill-rule:nonzero;stroke:none"
       id="path90" />
    <path
       d="m 149.363,37.923 h 3.332 V 22.775 h -3.332 z"
       style="fill:#231f20;fill-opacity:1;fill-rule:nonzero;stroke:none"
       id="path92" />
    <path
       d="m 164.797,31.841 c -2.617,0.672 -3.27,1.019 -3.27,2.015 0,0.735 0.672,1.34 1.95,1.34 1.277,0 2.597,-0.562 3.937,-1.492 l 1.734,2.512 c -1.539,1.23 -3.421,1.926 -5.628,1.926 -3.094,0 -5.301,-1.84 -5.301,-4.59 0,-3.008 1.969,-3.875 5.019,-4.653 2.532,-0.652 3.051,-1.105 3.051,-1.949 0,-0.886 -0.82,-1.449 -2.184,-1.449 -1.734,0 -3.16,0.715 -4.527,1.84 l -1.969,-2.36 c 1.821,-1.625 4.137,-2.425 6.43,-2.425 3.27,0 5.563,1.711 5.563,4.718 0,2.641 -1.731,3.766 -4.805,4.567"
       style="fill:#231f20;fill-opacity:1;fill-rule:nonzero;stroke:none"
       id="path94" />
    <path
       d="M 5.719,67.935 H 169.114 V 66.189 H 5.719 Z"
       style="fill:#231f20;fill-opacity:1;fill-rule:nonzero;stroke:none"
       id="path96" />
    <path
       d="M 5.719,264.075 H 169.114 V 151.63 H 5.719 Z"
       style="fill:#231f20;fill-opacity:1;fill-rule:nonzero;stroke:none"
       id="path98" />
    <path
       d="m 168.969,100.853 -0.063,43.199 h -7.324 c -0.766,-1.016 -0.25,-5.598 -2.566,-6.473 -7.852,1.762 -0.7,2.652 -3.391,6.473 -0.336,-0.02 -3.539,0 -3.879,0 0.367,-0.051 1.734,-1.586 -0.312,-3.344 -2.75,-18.109 2.3,-25.488 -0.254,-39.84 z"
       style="fill:#b50c36;fill-opacity:1;fill-rule:nonzero;stroke:none"
       id="path100" />
    <path
       d="m 52.121,130.677 c 2.941,1.383 2.961,4.453 3.098,6.469 -0.891,0.996 -4.375,1.058 -5.77,0.804 -1.937,-1.621 -0.258,-4.511 -1.41,-6.39 0.762,-1.625 2.805,-0.489 4.082,-0.883"
       style="fill:#b50c36;fill-opacity:1;fill-rule:nonzero;stroke:none"
       id="path102" />
    <path
       d="m 68.914,109.243 0.871,-0.25 c 0.797,-0.16 1.875,-0.195 2.711,0.156 -0.219,0.579 -0.512,1.129 -0.871,1.571 -0.953,-0.453 -1.859,-0.938 -2.711,-1.477"
       style="fill:#b50c36;fill-opacity:1;fill-rule:nonzero;stroke:none"
       id="path104" />
    <path
       d="m 69.145,128.786 c -1.774,4.707 4.628,6.625 7.097,9.5 l 3.317,-1.847 c -0.364,-3.215 -6.235,-3.809 -5.875,-7.293 0.613,-0.52 1.148,-1.399 1.945,-1.563 0.277,-0.867 -0.445,-1.394 -0.973,-1.922 -2.574,-1.039 -3.902,1.485 -5.511,3.125 m 3.351,-19.637 c 0.695,-1.738 0.781,-3.886 -0.055,-5.246 l -8.574,-0.3 v 1.097 c 1.504,1.981 3.172,3.383 5.047,4.543 l -1.723,0.485 c -2.449,1.675 3.313,4.074 4.207,4.73 l 2.317,-3.711 c -0.07,-0.832 -0.57,-1.32 -1.219,-1.598 m -17.055,-4.121 c -1.843,3.188 0.305,8.5 0.817,11.543 0.433,0.434 0.883,1.02 1.633,0.789 0.511,-1.664 -1.934,-2.75 -0.297,-4.191 1.691,0.5 3.914,-1.02 5.613,0.281 -0.891,1.449 -2.738,0.719 -3.992,1.305 v 0.793 l 3.781,0.23 c 0.59,-0.804 3.266,-1.562 2.676,-3.089 -2.52,-3.555 -6.824,-5.629 -10.231,-7.661 m -2.976,17.977 c 0.39,0.656 1.164,0.269 1.723,0.371 0.203,-1.594 2.691,0.379 1.73,-1.703 h -0.277 c -1.055,-0.551 -2.786,0 -3.176,1.332 m 4.902,-0.938 c 1.285,0.747 3.067,0.629 2.774,-1.839 h -2.075 c -0.398,0.5 -1,0.992 -0.699,1.839 m 1.559,17.36 c 0.359,0.578 0.883,1.676 1.926,1.316 -0.09,-0.871 -0.528,-2.476 -1.926,-1.816 z m 2.437,-19.449 c 1.992,-0.434 4.153,1.082 5.614,-0.504 -0.657,-1.387 -0.657,-3.696 -2.957,-2.391 -1.024,0.797 -3.329,0.438 -3.168,2.391 z m 0.219,18.144 c 0.148,1.664 2.145,1.012 3.258,1.524 l 0.222,-0.719 c -1.042,-0.805 -1.781,-2.547 -3.48,-1.887 z m 5.922,-12.629 c -1.262,-0.871 -3.399,-0.574 -4.813,-0.281 0.368,0.57 0.454,1.234 0.516,1.879 0.898,0.73 1.855,2.32 3.484,1.816 0.664,-0.937 0.961,-2.109 0.813,-3.414 m -0.035,13.188 -0.36,-4.535 c -0.179,-0.715 -0.722,-2.129 -2,-1.594 -1.543,-0.367 -0.73,1.515 -0.91,2.207 1.363,1.16 1.735,3.66 3.27,3.922 M 53.07,125.212 h -1.105 c -1.555,0.57 -4.965,1.367 -5.106,3.18 2.153,-0.571 4.067,-1.657 6.211,-2.387 z m 26.715,-4.719 c -2.066,-0.074 -3.851,-3.058 -5.625,-1.82 1.043,2.906 3.328,5.293 4.297,8.125 1.699,3.859 4.477,12.273 3.289,17.281 h -7.941 c -2.586,-0.73 -0.672,-7.414 -3.344,-7.851 -0.734,1.828 -0.52,4.003 -2.621,7.804 h -4.289 c 0.328,-2.863 -0.113,-3 -0.344,-3.289 -1.477,-0.078 -1.328,2.242 -3.18,1.008 -1.625,0.293 -2.062,-2.324 -3.769,-1.816 -0.582,1.386 -2.219,3.187 -4,2.109 1.551,-3.348 9.324,-4.723 5.633,-10.23 -0.75,-1.598 -0.153,-3.915 -2.145,-4.723 -3.488,0.945 -6.734,2.254 -10.215,3.125 0.371,-1.309 -0.593,-3.125 -0.226,-4.434 3.707,-0.5 4.816,-4.351 7.988,-5.511 0.672,-0.508 0.969,-1.082 0.824,-1.891 -2.226,-0.945 -4.597,1.019 -6.66,1.891 -0.523,-0.211 -0.238,-0.727 -0.305,-1.082 1.922,-2.262 8.141,-1.309 6.141,-6.02 -1.703,-3.855 -1.328,-10.242 -7.168,-10.758 -0.527,-1.156 0.875,-1.07 1.332,-1.586 5.02,-0.508 10.211,4.289 14.422,0.289 1.402,0 3.183,0.883 4.297,-0.258 h 12.617 c 2.379,4.594 0.539,7.532 0.766,11.747 0.277,1.066 -2.954,2.152 -5.399,1.566 -0.437,0.297 -0.148,0.879 -0.215,1.379 1.625,1.887 8.137,-0.938 6.657,3.641 0,0.355 0,1.23 -0.817,1.304"
       style="fill:#b50c36;fill-opacity:1;fill-rule:nonzero;stroke:none"
       id="path106" />
    <path
       d="m 18.125,139.396 c -7.914,0.507 -12.152,-0.305 -12.262,-0.274 v -6.269 h 1.481 c 1.781,-0.536 2.992,-0.571 4.781,-0.571 6.637,-0.676 12.223,0.297 18.809,0.657 -0.743,0.218 -1.496,0.402 -2.172,0.355 -1.121,0.844 -1.824,1.395 -1.563,2.73 1.746,1.864 4.946,0.325 6.992,1.434 1.813,-0.695 0.606,-2.668 1.036,-3.891 -0.18,-0.343 -0.379,-0.316 -0.59,-0.503 2.015,0.011 4.164,-0.051 6.48,-0.262 v 6.492 c -9.793,0.629 -16.699,-0.281 -22.992,0.102"
       style="fill:#b50c36;fill-opacity:1;fill-rule:nonzero;stroke:none"
       id="path108" />
    <path
       d="m 91.691,126.356 c -1.425,-0.367 -3.238,-0.652 -4.535,0.204 0.653,1.461 2.231,0.589 3.328,0.812 0.379,-0.512 1.161,0.07 1.207,-1.016 m 4.7,-15.433 v -1.914 c -2.543,-0.879 -4.903,-3.653 -7.68,-2.43 v 1.735 c 1.113,0.519 2.402,-1.047 3.34,1.39 1.523,-0.183 2.769,2.067 4.34,1.219 m -2.168,26.078 -1.2,-1.344 c -0.472,0 -1.316,1.434 -1.449,2.012 0.375,0.437 2.457,-0.164 2.649,-0.668 m 0.101,-3.109 c 0.594,-0.434 1.848,-0.469 1.199,-2.102 -0.742,-0.664 -1.296,1.063 -1.988,1.274 z m 1.422,-17.653 v -2.218 c -0.711,0.117 -1.656,-0.368 -2.191,0.367 0.144,1.715 1.48,1.597 2.191,1.851 m 0.805,5.793 h -4.125 v 1.516 h 4.125 z m 2.316,-18.656 c -0.976,-2.281 -2.777,-0.621 -4.023,0 -1.028,0.418 -1.856,-2.594 -2.821,-0.414 -0.046,0.523 0.235,0.73 0.329,1.144 2.261,1.559 4.613,0.305 6.515,-0.73 m -12.351,9.836 h 2.824 v -0.793 h -2.824 z m 4.828,17.812 c -0.883,-0.687 -2.114,-1.007 -3.129,-1.125 l -0.617,2.043 c 1.168,0.102 3.304,0.68 3.746,-0.918 m -3.489,3.172 h 2.168 v -0.789 h -2.168 z m 13.34,-1.668 v -2.445 c -1.136,0.133 -2.511,-0.375 -3.5,0.391 0.489,1.777 2.364,1.668 3.5,2.054 m -8.843,9.063 c 3.183,-0.793 6.531,-1.172 9.914,-1.309 v 3.77 H 88.102 c -0.016,-2.985 -2.286,-7.172 -2.286,-7.172 1.246,0.012 2.454,-0.07 3.551,-0.594 v -0.789 c -1.156,0.285 -2.344,0.434 -3.551,0.504 v -12.258 h 1.567 c 0.09,-0.289 0.367,-0.445 0.308,-0.797 l -0.308,-0.586 h -1.567 v -1.492 c 0.528,-0.027 1.09,-0.172 1.567,-0.035 0.027,-0.066 0.051,-0.137 0.097,-0.199 0.739,-0.133 1.258,-1.11 2.176,-0.598 v -0.789 h -1.648 c -0.317,0 -0.719,0.09 -0.965,0.383 -0.387,-0.152 -0.805,-0.215 -1.227,-0.156 v -1.129 c 1.246,0.461 2.872,-0.063 4.063,-0.121 0.137,-0.297 0.414,-0.442 0.324,-0.805 l -0.324,-0.574 c -1.242,0.449 -2.77,0.211 -4.063,0.344 v -9.485 c 0.446,-0.082 0.895,-0.211 1.246,-0.293 0.129,-0.363 0.504,-0.578 0.504,-1.008 -0.48,-0.293 -1.113,-0.359 -1.75,-0.234 v -5.301 h 16.45 v 5.301 c -0.629,-0.125 -2.192,-0.199 -2.676,0.086 0,0.441 1.64,3.766 2.094,3.848 l 0.582,7.086 c -1.293,-0.133 -2.809,0.105 -4.055,-0.344 l -0.32,0.574 c -0.086,0.363 0.191,0.508 0.32,0.805 1.207,0.058 2.828,0.582 4.055,0.121 v 1.129 c -0.676,-0.086 -1.391,0.093 -1.875,0.562 -0.051,0.371 0.23,0.512 0.328,0.797 0.469,-0.137 1.027,0.008 1.547,0.035 v 1.492 h -1.547 l -0.328,0.586 c -0.051,0.352 0.23,0.508 0.328,0.797 h 1.547 v 12.258 c -1.192,-0.07 -2.395,-0.219 -3.539,-0.504 v 0.789 c 1.093,0.524 2.312,0.606 3.539,0.594 v 2.414 c -2.922,0.164 -5.828,0.469 -8.582,0.699 -0.696,0.371 -1.707,0.289 -2.18,1.02 0.187,0.504 0.519,0.578 0.848,0.578"
       style="fill:#b50c36;fill-opacity:1;fill-rule:nonzero;stroke:none"
       id="path110" />
    <path
       d="m 19.441,141.392 c 6.989,0 14.664,0.632 21.75,0.089 v 2.661 H 5.793 c -0.035,-1.106 0,-2.836 0,-2.836 4.43,0.73 9.937,0.086 13.648,0.086"
       style="fill:#b50c36;fill-opacity:1;fill-rule:nonzero;stroke:none"
       id="path112" />
    <path
       d="m 14.008,128.54 c -1.985,0 -4.137,1.934 -6.125,2.578 H 6.895 L 5.898,130.899 5.852,100.868 h 35.386 v 30.375 c -9.234,1.067 -17.285,-3.406 -27.23,-2.703"
       style="fill:#b50c36;fill-opacity:1;fill-rule:nonzero;stroke:none"
       id="path114" />
    <path
       d="m 142.18,124.251 c -0.809,0.074 -2.629,0.25 -2.782,1.41 -0.187,1.266 -0.257,3.024 2.547,2.508 2.09,-0.539 2.922,-3.426 0.235,-3.918 m -5.008,-15.773 c -0.879,-0.989 -0.633,-5.43 -2.766,-3.129 -2.273,5.98 0.805,10.093 1.321,15.406 1.324,1.449 2.789,1.984 3.621,1.617 0.203,-0.043 1.316,-2.707 1.5,-2.746 0.254,-3.656 -1.965,-3.84 0.175,-9.898 -0.578,-0.993 -3.179,-0.485 -3.851,-1.25 m -5.285,19.367 c 0.441,0.59 2,1.414 2.828,1.273 0.883,-0.363 1.476,-2.039 1.109,-3.203 -0.078,-0.941 -1.109,-0.719 -1.855,-0.719 -1.039,0.364 -2.383,1.418 -2.082,2.649 m -3,2.277 c -0.309,-1.234 -1.848,-2.68 -3.77,-2.312 -0.965,0.73 -0.644,2.117 -0.867,3.129 0.223,0.722 2.355,1.304 3.25,1.082 0.367,-0.504 1.676,-1.172 1.387,-1.899 m -4.34,6.106 c 0.437,-1.75 -1.961,-2.059 -2.863,-2.157 -1.004,0.535 -2.278,2.489 -1.61,4.125 0.676,0.668 1.231,1.535 2.461,1.2 0.656,-1.082 2.563,-1.633 2.012,-3.168 m -4.934,-29.133 v 2.695 l -2.039,1.93 -0.859,2.89 c -1,4.414 0.144,9.547 0.941,11.211 -0.035,-0.031 -0.043,-0.039 -0.078,-0.054 -0.742,0.222 -1.926,-0.434 -2.371,0.504 0.672,1.093 -0.285,2.765 0.82,3.703 0.809,0.148 2.821,0.109 3.34,-0.469 -0.055,-0.902 -0.09,-2.184 -0.91,-3.086 0.852,0.176 1.781,0.027 2.445,-0.637 -0.211,-8.457 0.606,-14.172 1.293,-21.926 z m -8.023,27.914 c -1.422,1.219 -2.301,2.621 -1.945,4.531 0.894,2.094 3.898,1.399 5.144,0.52 0.957,-1.395 2.668,-3.055 0.039,-3.786 0.262,-3.375 -2.187,-2.843 -3.238,-1.265 m 35.512,-13.949 c -2.067,5.015 2.652,21.711 -4.973,23.082 -0.836,0.121 -1.535,-0.231 -2.195,-0.782 1.328,-0.949 2.336,-2.367 2.562,-3.98 -1.781,-3.922 -5.473,0.871 -7.992,-0.441 v -3.188 c -1.043,-0.867 -1.781,-2.031 -3.254,-1.594 -0.895,1.02 -2.078,1.739 -1.637,3.18 0.903,1.891 2.965,1.164 4.297,2.043 -0.035,0.047 -0.058,0.09 -0.082,0.137 -2.531,0.617 -2.199,4.562 -6.476,4.562 h -8.168 c -3.793,-1.168 -8.465,-3.336 -12.836,-0.023 l 0.828,-5.387 0.539,-1.844 -0.012,-1.605 1.922,-1.676 -2.004,-1.711 0.684,-4.144 c 1.511,-0.45 3.136,-0.524 3.211,-1.907 -0.278,-2.261 -1.973,-4.855 -2.036,-7.195 -0.101,-2.895 1.508,-14.836 1.461,-17.719 1.563,0.141 9.032,0.442 10.559,1.219 0.008,-0.059 2.082,-1.16 2.082,-1.219 2.652,-0.258 6.121,-0.918 5.254,3.688 l -1.918,12.238 c -2.277,6.266 1.918,7.828 3.324,7.898 l 1.102,-1.003 c -0.387,-1.247 -0.59,-2.438 -0.699,-3.594 0.277,-0.469 0.503,-0.965 0.355,-1.75 0.094,-0.739 -0.102,-1.168 -0.379,-1.469 0.441,-5.68 3.156,-10.625 3.207,-16.051 l 7.152,0.043 2.606,2.024 -0.547,5.043 0.305,4.75 -0.164,8.847 c 1.097,-0.258 2.179,-0.562 3.41,-1.039 z"
       style="fill:#b50c36;fill-opacity:1;fill-rule:nonzero;stroke:none"
       id="path116" />
    <path
       d="m 100.289,180.892 c 0.883,0 3.176,-0.207 4.762,0.058 4.965,0.828 7.527,2.442 7.527,5.989 0,3.546 -2.246,4.808 -9.082,4.808 h -6.285 v -20.058 c 0.488,0.027 1.016,0.074 1.539,0.074 0.488,0 0.98,-0.047 1.539,-0.074 z m 0,9.711 c 1.059,0.058 3.563,0.086 5.078,-0.032 2.785,-0.203 3.985,-1.785 3.985,-3.781 0,-2.609 -2.047,-4.457 -5.571,-4.746 -1.199,-0.09 -2.609,-0.09 -3.492,0 z"
       style="fill:#bdbcbc;fill-opacity:1;fill-rule:nonzero;stroke:none"
       id="path118" />
    <path
       d="m 122.32,180.29 -0.57,-0.219 c -1.289,-0.507 -1.25,-0.441 -3.602,-0.949 -2.765,-0.601 -5.613,-0.945 -5.761,-4.105 -0.078,-1.993 2.008,-3.508 4.359,-3.637 2.313,-0.125 4.625,0.887 5.383,2.812 v -2.429 h 4.625 v 0.535 h -1.59 v 8.816 c 0,2.336 -0.418,4.516 -5.422,4.739 -1.367,0.062 -1.707,-0.063 -2.695,-0.192 -1.137,-0.156 -2.199,-0.504 -2.957,-0.789 v -4.234 h 0.683 l 0.836,1.769 c 0.719,1.52 1.364,3.16 3.829,2.942 2.464,-0.223 2.882,-1.582 2.882,-3.035 z m 0,-1.988 c 0,-0.824 0.035,-1.328 -0.078,-2.149 -0.265,-1.832 -1.707,-3.855 -4.094,-3.98 -2.011,-0.129 -2.957,1.453 -2.804,2.906 0.34,3.254 1.59,2.844 5.457,4.043 l 1.519,0.477 z"
       style="fill:#bdbcbc;fill-opacity:1;fill-rule:nonzero;stroke:none"
       id="path120" />
    <path
       d="m 135.414,171.763 h -6.863 v 0.535 h 1.707 v 12.641 h -1.781 v 0.566 h 4.437 v -2.875 c 0.188,1.043 1.781,2.969 4.281,2.969 0.723,0 1.367,-0.157 2.086,-0.473 v -4.992 h -0.719 l -0.91,2.308 c -0.644,1.61 -1.136,2.653 -2.121,2.18 -2.582,-1.234 -2.351,-4.203 -2.351,-6.984 v -5.34 h 2.234 z"
       style="fill:#bdbcbc;fill-opacity:1;fill-rule:nonzero;stroke:none"
       id="path122" />
    <path
       d="m 145.973,188.696 c 0,-0.882 -0.875,-1.515 -1.86,-1.515 -0.949,0 -1.82,0.695 -1.82,1.484 0,0.789 0.836,1.547 1.785,1.547 1.02,0 1.895,-0.695 1.895,-1.516 m -4.778,-16.933 v 0.535 h 1.743 v 12.641 h -1.629 v 0.566 h 4.586 v -13.207 h 1.554 v -0.535 z"
       style="fill:#bdbcbc;fill-opacity:1;fill-rule:nonzero;stroke:none"
       id="path124" />
    <path
       d="m 158.766,182.282 c -0.719,2.149 -1.442,3.004 -3.414,3.004 -1.704,0 -3.868,-0.57 -4.016,-2.308 -0.117,-1.547 1.816,-2.18 3.562,-2.653 2.957,-0.855 6.407,-1.738 6.293,-4.488 -0.074,-2.625 -2.691,-4.551 -6.253,-4.488 -2.047,0.031 -4.364,0.695 -5.161,1.172 v 4.515 h 0.684 l 0.797,-2.273 c 0.871,-2.559 1.859,-2.594 3.414,-2.719 2.16,-0.188 4.625,0.695 4.812,2.465 0.266,2.18 -3.222,2.75 -5.422,3.414 -1.554,0.473 -4.585,1.324 -4.585,3.918 0,3.031 3.941,4.043 6.027,4.043 1.746,0 3.754,-0.567 4.473,-0.945 v -4.141 h -0.719 z"
       style="fill:#bdbcbc;fill-opacity:1;fill-rule:nonzero;stroke:none"
       id="path126" />
    <path
       d="m 30.07,216.161 h -6.414 v -18.324 c 0,-0.824 -0.683,-1.457 -1.457,-1.457 h -0.683 c -0.825,0 -1.457,0.633 -1.457,1.457 v 18.324 h -6.368 c -0.824,0 -1.503,0.535 -1.503,1.36 v 0.535 c 0,0.824 0.679,1.359 1.457,1.359 H 30.02 c 0.828,0 1.507,-0.535 1.507,-1.359 v -0.535 c 0,-0.825 -0.679,-1.36 -1.457,-1.36"
       style="fill:#ffffff;fill-opacity:1;fill-rule:nonzero;stroke:none"
       id="path128" />
    <path
       d="M 50.82,196.38 H 35.852 c -0.778,0 -1.36,0.586 -1.36,1.363 v 20.313 c 0,0.824 0.633,1.359 1.41,1.359 h 14.239 c 0.828,0 1.457,-0.535 1.457,-1.359 v -0.535 c 0,-0.825 -0.629,-1.36 -1.457,-1.36 H 38.09 v -6.707 h 11.078 c 0.824,0 1.457,-0.535 1.457,-1.359 v -0.535 c 0,-0.829 -0.633,-1.364 -1.457,-1.364 H 38.09 v -6.558 h 12.73 c 0.828,0 1.457,-0.535 1.457,-1.36 v -0.535 c 0,-0.828 -0.629,-1.363 -1.457,-1.363"
       style="fill:#ffffff;fill-opacity:1;fill-rule:nonzero;stroke:none"
       id="path130" />
    <path
       d="M 71.086,196.38 H 55.973 v 21.578 c 0,0.828 0.629,1.457 1.457,1.457 h 0.679 c 0.778,0 1.457,-0.629 1.457,-1.457 v -18.32 h 11.52 c 0.824,0 1.457,-0.535 1.457,-1.36 v -0.535 c 0,-0.828 -0.633,-1.363 -1.457,-1.363"
       style="fill:#ffffff;fill-opacity:1;fill-rule:nonzero;stroke:none"
       id="path132" />
    <path
       d="M 91.254,196.38 H 76.285 c -0.777,0 -1.359,0.586 -1.359,1.363 v 20.313 c 0,0.824 0.629,1.359 1.406,1.359 H 90.57 c 0.828,0 1.461,-0.535 1.461,-1.359 v -0.535 c 0,-0.825 -0.633,-1.36 -1.461,-1.36 H 78.52 v -6.707 h 11.082 c 0.824,0 1.457,-0.535 1.457,-1.359 v -0.535 c 0,-0.829 -0.633,-1.364 -1.457,-1.364 H 78.52 v -6.558 h 12.734 c 0.824,0 1.457,-0.535 1.457,-1.36 v -0.535 c 0,-0.828 -0.633,-1.363 -1.457,-1.363"
       style="fill:#ffffff;fill-opacity:1;fill-rule:nonzero;stroke:none"
       id="path134" />
    <path
       d="m 111.273,196.38 h -9.523 c -3.016,0 -5.348,2.578 -5.348,5.543 v 12.098 c 0,2.964 2.528,5.394 5.543,5.394 h 8.746 c 0.825,0 1.457,-0.535 1.457,-1.359 v -0.535 c 0,-0.825 -0.632,-1.36 -1.457,-1.36 h -7.484 c -2.332,0 -3.207,-1.363 -3.207,-3.16 v -10.352 c 0,-2.281 1.457,-3.011 3.254,-3.011 h 8.019 c 0.829,0 1.461,-0.535 1.461,-1.36 v -0.535 c 0,-0.828 -0.632,-1.363 -1.461,-1.363"
       style="fill:#ffffff;fill-opacity:1;fill-rule:nonzero;stroke:none"
       id="path136" />
    <path
       d="m 131.297,213.489 c 0,1.457 -1.215,2.672 -2.676,2.672 h -6.168 c -1.508,0 -2.676,-1.215 -2.676,-2.672 V 202.31 c 0,-1.504 1.168,-2.672 2.625,-2.672 h 6.219 c 1.461,0 2.676,1.168 2.676,2.672 z m -1.801,-17.109 h -7.922 c -3.012,0 -5.39,2.48 -5.39,5.445 v 12.246 c 0,2.965 2.574,5.344 5.586,5.344 h 7.535 c 3.011,0 5.586,-2.379 5.586,-5.344 v -12.246 c 0,-2.965 -2.43,-5.445 -5.395,-5.445"
       style="fill:#ffffff;fill-opacity:1;fill-rule:nonzero;stroke:none"
       id="path138" />
    <path
       d="m 159.387,196.38 h -0.684 c -0.777,0 -1.457,0.633 -1.457,1.461 v 15.355 l -4.859,-6.804 c -0.438,-0.582 -0.825,-1.067 -1.555,-1.067 h -0.484 c -0.731,0 -1.121,0.485 -1.559,1.067 l -4.859,6.804 v -15.355 c 0,-0.828 -0.68,-1.461 -1.457,-1.461 h -0.68 c -0.828,0 -1.457,0.633 -1.457,1.461 v 20.215 c 0,0.777 0.535,1.359 1.359,1.359 h 0.875 c 0.633,0 1.164,-0.582 1.508,-1.066 l 6.512,-9.188 6.558,9.188 c 0.344,0.484 0.829,1.066 1.457,1.066 h 0.875 c 0.829,0 1.364,-0.582 1.364,-1.359 v -20.215 c 0,-0.828 -0.633,-1.461 -1.457,-1.461"
       style="fill:#ffffff;fill-opacity:1;fill-rule:nonzero;stroke:none"
       id="path140" />
  </g>
</svg>
